<?xml version="1.0" encoding="UTF-8" standalone="no"?>
<!-- Created with Inkscape (http://www.inkscape.org/) -->

<svg
   width="49.90984mm"
   height="14.723439mm"
   viewBox="0 0 49.90984 14.723439"
   version="1.1"
   id="svg5"
   inkscape:version="1.1.2 (0a00cf5339, 2022-02-04)"
   sodipodi:docname="banner.svg"
   xmlns:inkscape="http://www.inkscape.org/namespaces/inkscape"
   xmlns:sodipodi="http://sodipodi.sourceforge.net/DTD/sodipodi-0.dtd"
   xmlns="http://www.w3.org/2000/svg"
   xmlns:svg="http://www.w3.org/2000/svg">
  <sodipodi:namedview
     id="namedview7"
     pagecolor="#ffffff"
     bordercolor="#666666"
     borderopacity="1.0"
     inkscape:pageshadow="2"
     inkscape:pageopacity="0.0"
     inkscape:pagecheckerboard="0"
     inkscape:document-units="mm"
     showgrid="false"
     fit-margin-top="3"
     lock-margins="false"
     fit-margin-left="6"
     fit-margin-right="6"
     fit-margin-bottom="2"
     inkscape:zoom="1.3930433"
     inkscape:cx="135.31525"
     inkscape:cy="-17.946319"
     inkscape:window-width="1920"
     inkscape:window-height="1211"
     inkscape:window-x="0"
     inkscape:window-y="0"
     inkscape:window-maximized="1"
     inkscape:current-layer="text1574" />
  <defs
     id="defs2" />
  <g
     inkscape:label="Layer 1"
     inkscape:groupmode="layer"
     id="layer1"
     transform="translate(-51.742868,-63.382164)">
    <g
       aria-label="happy virus"
       id="text1574"
       style="font-size:9.87778px;line-height:1.25;font-family:happy_virus;-inkscape-font-specification:happy_virus;stroke-width:0.264583">
      <path
         d="m 58.688202,69.034888 q 0.395498,-0.395497 0.935689,-0.395497 0.540191,0 0.926041,0.395497 0.395498,0.385851 0.395498,0.926042 0,0.549837 -0.385851,0.935688 -0.115755,0.115755 -0.06752,0.270096 0.04823,0.15434 0.183279,0.192925 0.135048,0.03858 0.270096,-0.06752 0.549837,-0.549837 0.549837,-1.331185 0,-0.781348 -0.549837,-1.331185 -0.549838,-0.549837 -1.331186,-0.549837 -0.771701,0 -1.321539,0.549837 V 66.65226 q 0,-0.163987 -0.135047,-0.231511 -0.135048,-0.07717 -0.279742,0 -0.135048,0.06752 -0.135048,0.231511 v 3.318316 q 0,0.771702 0.549837,1.321539 0.192926,0.192926 0.385851,-0.0096 0.202572,-0.192925 0.0096,-0.385851 -0.395497,-0.395497 -0.395497,-0.935688 0,-0.530545 0.395497,-0.926042 z"
         id="path13632" />
      <path
         d="m 63.713909,71.321054 q 0.163986,0 0.23151,-0.135048 0.07717,-0.144694 0,-0.279741 -0.06752,-0.144695 -0.23151,-0.144695 -0.453375,0 -0.771702,-0.30868 -0.318327,-0.318327 -0.318327,-0.762055 0,-0.443729 0.318327,-0.752409 0.318327,-0.318327 0.771702,-0.318327 0.443728,0 0.762055,0.318327 0.318327,0.30868 0.318327,0.752409 v 1.350477 q 0,0.163987 0.135048,0.231511 0.144694,0.07717 0.279741,0 0.135048,-0.06752 0.135048,-0.231511 v -1.350477 q 0,-0.675239 -0.482313,-1.147907 -0.472667,-0.482313 -1.147906,-0.482313 -0.675239,0 -1.157553,0.482313 -0.482313,0.472668 -0.482313,1.147907 0,0.675238 0.482313,1.157552 0.482314,0.472667 1.157553,0.472667 z"
         id="path13634" />
      <path
         d="m 67.591709,70.848387 q -0.163986,0 -0.241157,0.144694 -0.06752,0.135048 0,0.270095 0.07717,0.144695 0.241157,0.144695 0.694532,0 1.176845,-0.482314 0.49196,-0.49196 0.49196,-1.186491 0,-0.694532 -0.49196,-1.186491 -0.482313,-0.49196 -1.176845,-0.49196 -0.694531,0 -1.186491,0.49196 -0.482313,0.491959 -0.482313,1.186491 v 6.07715 q 0,0.163986 0.135047,0.23151 0.135048,0.07717 0.270096,0 0.144694,-0.06752 0.144694,-0.23151 v -6.07715 q 0,-0.463021 0.327973,-0.790994 0.327973,-0.327973 0.790994,-0.327973 0.463021,0 0.781348,0.327973 0.327973,0.327973 0.327973,0.790994 0,0.463021 -0.327973,0.790994 -0.318327,0.318327 -0.781348,0.318327 z"
         id="path13636" />
      <path
         d="m 71.498448,70.848387 q -0.163986,0 -0.241156,0.144694 -0.06752,0.135048 0,0.270095 0.07717,0.144695 0.241156,0.144695 0.694532,0 1.176845,-0.482314 0.49196,-0.49196 0.49196,-1.186491 0,-0.694532 -0.49196,-1.186491 -0.482313,-0.49196 -1.176845,-0.49196 -0.694531,0 -1.186491,0.49196 -0.482313,0.491959 -0.482313,1.186491 v 6.07715 q 0,0.163986 0.135048,0.23151 0.135047,0.07717 0.270095,0 0.144694,-0.06752 0.144694,-0.23151 v -6.07715 q 0,-0.463021 0.327973,-0.790994 0.327974,-0.327973 0.790994,-0.327973 0.463021,0 0.781348,0.327973 0.327973,0.327973 0.327973,0.790994 0,0.463021 -0.327973,0.790994 -0.318327,0.318327 -0.781348,0.318327 z"
         id="path13638" />
      <path
         d="m 75.617406,70.819448 q -0.540191,0 -0.935689,-0.395497 -0.395497,-0.395497 -0.395497,-0.926042 0,-0.540191 0.395497,-0.935688 0.192926,-0.192925 -0.0096,-0.385851 -0.192925,-0.202571 -0.385851,-0.0096 -0.549837,0.549837 -0.549837,1.331185 0,0.781348 0.549837,1.331185 0.549838,0.549838 1.321539,0.549838 0.781348,0 1.331186,-0.549838 v 3.607705 q 0,0.463021 -0.327974,0.781348 -0.318327,0.327973 -0.790994,0.327973 -0.163986,0 -0.241156,0.135048 -0.06752,0.144694 0,0.279742 0.07717,0.144694 0.241156,0.144694 0.694532,0 1.186491,-0.49196 0.49196,-0.482313 0.49196,-1.176845 v -4.93889 q 0,-0.771701 -0.559483,-1.331185 -0.115756,-0.115755 -0.270096,-0.06752 -0.15434,0.04823 -0.192925,0.192925 -0.02894,0.135048 0.07717,0.270096 0.385851,0.385851 0.385851,0.993566 -0.01929,0.511252 -0.41479,0.887457 -0.385851,0.376204 -0.906749,0.376204 z"
         id="path13640" />
      <path
         d="m 82.205807,68.243894 q -0.06752,-0.144694 -0.231511,-0.15434 -0.15434,-0.0096 -0.260449,0.115755 -0.09646,0.115755 -0.01929,0.270096 l 1.2926,2.73954 q 0.06752,0.15434 0.250803,0.15434 0.183279,0 0.250803,-0.15434 l 1.321539,-2.73954 q 0.07717,-0.154341 -0.01929,-0.270096 -0.09646,-0.125401 -0.250803,-0.125401 -0.15434,0 -0.23151,0.15434 l -1.070736,2.218642 z"
         id="path13642" />
      <path
         d="m 85.408369,71.070251 q 0,0.163987 0.135047,0.231511 0.135048,0.07717 0.270096,0 0.144694,-0.06752 0.144694,-0.231511 v -2.729894 q 0,-0.163987 -0.135048,-0.231511 -0.135047,-0.07717 -0.279742,0 -0.135047,0.06752 -0.135047,0.231511 z"
         id="path13644" />
      <path
         d="m 88.167203,68.620099 q 0.163986,0 0.23151,-0.135048 0.07717,-0.144694 0,-0.279742 -0.06752,-0.144694 -0.23151,-0.144694 -0.694532,0 -1.186491,0.49196 -0.49196,0.491959 -0.49196,1.186491 v 1.331185 q 0,0.163987 0.135048,0.231511 0.135048,0.07717 0.270095,0 0.144694,-0.06752 0.144694,-0.231511 v -1.331185 q 0,-0.463021 0.327974,-0.790994 0.327973,-0.327973 0.80064,-0.327973 z"
         id="path13646" />
      <path
         d="m 91.581982,70.433597 q -0.385851,0.385851 -0.926042,0.385851 -0.540191,0 -0.935688,-0.395497 -0.395497,-0.395497 -0.395497,-0.926042 0,-0.540191 0.395497,-0.935688 0.192925,-0.192925 -0.0096,-0.385851 -0.192925,-0.202571 -0.38585,-0.0096 -0.549838,0.549837 -0.549838,1.331185 0,0.781348 0.549838,1.331185 0.549837,0.549838 1.321539,0.549838 0.781347,0 1.331185,-0.549838 0.549837,-0.549837 0.549837,-1.331185 0,-0.781348 -0.549837,-1.331185 -0.115756,-0.115755 -0.270096,-0.06752 -0.15434,0.04823 -0.192925,0.192925 -0.02894,0.135048 0.07717,0.270096 0.385851,0.385851 0.385851,0.935688 0,0.540191 -0.395497,0.935688 z"
         id="path13648" />
      <path
         d="m 93.742747,69.72942 q 0,0.443728 -0.318327,0.762055 -0.318326,0.308681 -0.771701,0.308681 -0.163987,0 -0.241157,0.144694 -0.06752,0.135047 0,0.279741 0.07717,0.135048 0.241157,0.135048 0.675239,0 1.157552,-0.472667 0.482314,-0.482314 0.482314,-1.157552 0,-0.443729 0.318327,-0.752409 0.318326,-0.318327 0.771701,-0.318327 0.163987,0 0.231511,-0.135048 0.07717,-0.144694 0,-0.279742 Q 95.5466,68.0992 95.382613,68.0992 q -0.675239,0 -1.157552,0.482314 -0.482314,0.472667 -0.482314,1.147906 z"
         id="path13650" />
    </g>
  </g>
</svg>
