<?xml version="1.0" encoding="UTF-8" standalone="no"?>
<!-- Created with Inkscape (http://www.inkscape.org/) -->

<svg
   width="175.10446mm"
   height="44.912506mm"
   viewBox="0 0 175.10446 44.912505"
   version="1.1"
   id="svg5"
   xmlns="http://www.w3.org/2000/svg"
   xmlns:svg="http://www.w3.org/2000/svg">
  <defs
     id="defs2" />
  <g
     id="layer1"
     transform="translate(10.854439,-48.787654)">
    <g
       aria-label="happy virus"
       id="text1574"
       style="font-size:9.87778px;line-height:1.25;font-family:happy_virus;-inkscape-font-specification:happy_virus;stroke-width:0.264583">
      <path
         d="m -6.487987,61.040511 q 1.826794,-1.826789 4.3219209,-1.826789 2.49512687,0 4.2773571,1.826789 1.826794,1.782235 1.826794,4.277362 0,2.539681 -1.7822348,4.321916 -0.5346691,0.534669 -0.311873,1.247566 0.222773,0.712892 0.8465605,0.891115 0.6237829,0.1782 1.2475658,-0.311873 2.5396814,-2.539682 2.5396814,-6.148706 0,-3.609024 -2.5396814,-6.148706 -2.5396861,-2.539681 -6.1487103,-2.539681 -3.564465,0 -6.1041511,2.539681 V 50.03522 q 0,-0.757451 -0.6237783,-1.069343 -0.6237829,-0.356446 -1.2921208,0 -0.623782,0.311873 -0.623782,1.069343 v 15.327207 q 0,3.56447 2.5396811,6.104151 0.8911197,0.89112 1.7822348,-0.04434 0.9356743,-0.891115 0.044342,-1.782235 -1.8267894,-1.826789 -1.8267894,-4.321916 0,-2.450572 1.8267894,-4.277362 z"
         id="path13632"
         style="stroke-width:1.2221" />
      <path
         d="m 16.725611,71.600247 q 0.757446,0 1.069338,-0.623783 0.356446,-0.668338 0,-1.292116 -0.311873,-0.668342 -1.069338,-0.668342 -2.094126,0 -3.56447,-1.425784 -1.470343,-1.470343 -1.470343,-3.51991 0,-2.049572 1.470343,-3.475356 1.470344,-1.470344 3.56447,-1.470344 2.049567,0 3.51991,1.470344 1.470344,1.425784 1.470344,3.475356 v 6.237814 q 0,0.757452 0.623782,1.069343 0.668338,0.356446 1.292116,0 0.623783,-0.311873 0.623783,-1.069343 v -6.237814 q 0,-3.11891 -2.22779,-5.30215 -2.183235,-2.22779 -5.302145,-2.22779 -3.11891,0 -5.346705,2.22779 -2.2277896,2.18324 -2.2277896,5.30215 0,3.118905 2.2277896,5.346699 2.227795,2.183236 5.346705,2.183236 z"
         id="path13634"
         style="stroke-width:1.2221" />
      <path
         d="m 34.637059,69.417011 q -0.757447,0 -1.113898,0.668338 -0.311872,0.623783 0,1.247561 0.356447,0.668342 1.113898,0.668342 3.208023,0 5.435813,-2.227795 2.27235,-2.272349 2.27235,-5.480368 0,-3.208023 -2.27235,-5.480368 -2.22779,-2.272349 -5.435813,-2.272349 -3.208019,0 -5.480368,2.272349 -2.22779,2.272345 -2.22779,5.480368 v 28.070183 q 0,0.757447 0.623778,1.069338 0.623783,0.356446 1.247566,0 0.668337,-0.311873 0.668337,-1.069338 V 64.293089 q 0,-2.138681 1.514898,-3.653579 1.514898,-1.514898 3.653579,-1.514898 2.138681,0 3.609024,1.514898 1.514898,1.514898 1.514898,3.653579 0,2.138681 -1.514898,3.653579 -1.470343,1.470343 -3.609024,1.470343 z"
         id="path13636"
         style="stroke-width:1.2221" />
      <path
         d="m 52.682175,69.417011 q -0.757446,0 -1.113892,0.668338 -0.311873,0.623783 0,1.247561 0.356446,0.668342 1.113892,0.668342 3.208024,0 5.435814,-2.227795 2.272349,-2.272349 2.272349,-5.480368 0,-3.208023 -2.272349,-5.480368 -2.22779,-2.272349 -5.435814,-2.272349 -3.208019,0 -5.480368,2.272349 -2.22779,2.272345 -2.22779,5.480368 v 28.070183 q 0,0.757447 0.623783,1.069338 0.623778,0.356446 1.247561,0 0.668337,-0.311873 0.668337,-1.069338 V 64.293089 q 0,-2.138681 1.514898,-3.653579 1.514903,-1.514898 3.653579,-1.514898 2.138681,0 3.609024,1.514898 1.514898,1.514898 1.514898,3.653579 0,2.138681 -1.514898,3.653579 -1.470343,1.470343 -3.609024,1.470343 z"
         id="path13638"
         style="stroke-width:1.2221" />
      <path
         d="m 71.707525,69.283343 q -2.495127,0 -4.321921,-1.826789 -1.826789,-1.82679 -1.826789,-4.277362 0,-2.495127 1.826789,-4.321916 0.89112,-0.891116 -0.04434,-1.782235 -0.891115,-0.93567 -1.782235,-0.04434 -2.539681,2.539681 -2.539681,6.148705 0,3.609025 2.539681,6.148706 2.539686,2.539686 6.104151,2.539686 3.609025,0 6.148711,-2.539686 v 16.663887 q 0,2.138681 -1.514903,3.609024 -1.470343,1.514898 -3.653579,1.514898 -0.757446,0 -1.113892,0.623783 -0.311873,0.668337 0,1.29212 0.356446,0.668338 1.113892,0.668338 3.208024,0 5.480369,-2.272349 2.272349,-2.227791 2.272349,-5.435814 V 63.179404 q 0,-3.564465 -2.584236,-6.148705 -0.534674,-0.534669 -1.247566,-0.311873 -0.712892,0.222773 -0.891115,0.891115 -0.133673,0.623783 0.356446,1.247566 1.782235,1.782234 1.782235,4.589253 -0.0891,2.361458 -1.915903,4.099138 -1.782235,1.737676 -4.188248,1.737676 z"
         id="path13640"
         style="stroke-width:1.2221" />
      <path
         d="m 102.13916,57.386932 q -0.31187,-0.668337 -1.06934,-0.712892 -0.71289,-0.04434 -1.203007,0.534669 -0.445546,0.534669 -0.0891,1.247566 l 5.970487,12.653857 q 0.31187,0.712892 1.15845,0.712892 0.84656,0 1.15845,-0.712892 l 6.10415,-12.653857 q 0.35645,-0.712897 -0.0891,-1.247566 -0.44555,-0.579223 -1.15845,-0.579223 -0.71289,0 -1.06934,0.712892 l -4.9457,10.247844 z"
         id="path13642"
         style="stroke-width:1.2221" />
      <path
         d="m 116.93171,70.441795 q 0,0.757451 0.62377,1.069343 0.62379,0.356446 1.24757,0 0.66834,-0.311873 0.66834,-1.069343 V 57.832492 q 0,-0.757451 -0.62379,-1.069343 -0.62377,-0.356446 -1.29212,0 -0.62377,0.311873 -0.62377,1.069343 z"
         id="path13644"
         style="stroke-width:1.2221" />
      <path
         d="m 129.67468,59.124612 q 0.75745,0 1.06934,-0.623782 0.35645,-0.668338 0,-1.292121 -0.31187,-0.668337 -1.06934,-0.668337 -3.20802,0 -5.48037,2.272349 -2.27235,2.272345 -2.27235,5.480368 v 6.148706 q 0,0.757451 0.62379,1.069343 0.62378,0.356446 1.24756,0 0.66833,-0.311873 0.66833,-1.069343 v -6.148706 q 0,-2.138681 1.51491,-3.653579 1.5149,-1.514898 3.69813,-1.514898 z"
         id="path13646"
         style="stroke-width:1.2221" />
      <path
         d="m 145.44745,67.501108 q -1.78224,1.782235 -4.27736,1.782235 -2.49513,0 -4.32192,-1.826789 -1.82679,-1.82679 -1.82679,-4.277362 0,-2.495127 1.82679,-4.321916 0.89112,-0.891116 -0.0443,-1.782235 -0.89112,-0.93567 -1.78223,-0.04434 -2.53969,2.539681 -2.53969,6.148705 0,3.609025 2.53969,6.148706 2.53968,2.539686 6.10415,2.539686 3.60902,0 6.1487,-2.539686 2.53969,-2.539681 2.53969,-6.148706 0,-3.609024 -2.53969,-6.148705 -0.53467,-0.534669 -1.24756,-0.311873 -0.71289,0.222773 -0.89112,0.891115 -0.13367,0.623783 0.35645,1.247566 1.78223,1.782234 1.78223,4.321916 0,2.495127 -1.82678,4.321916 z"
         id="path13648"
         style="stroke-width:1.2221" />
      <path
         d="m 155.42796,64.248535 q 0,2.049567 -1.47034,3.51991 -1.47034,1.425789 -3.56447,1.425789 -0.75745,0 -1.1139,0.668337 -0.31187,0.623778 0,1.292116 0.35645,0.623783 1.1139,0.623783 3.11891,0 5.3467,-2.183236 2.2278,-2.227794 2.2278,-5.346699 0,-2.049572 1.47034,-3.475356 1.47034,-1.470344 3.56446,-1.470344 0.75746,0 1.06935,-0.623782 0.35644,-0.668338 0,-1.292121 -0.31189,-0.668337 -1.06935,-0.668337 -3.11891,0 -5.3467,2.227794 -2.22779,2.183236 -2.22779,5.302146 z"
         id="path13650"
         style="stroke-width:1.2221" />
    </g>
  </g>
</svg>
