<?xml version="1.0" encoding="UTF-8" standalone="no"?>
<!-- Created with Inkscape (http://www.inkscape.org/) -->

<svg
   width="371.35925mm"
   height="23.118395mm"
   viewBox="0 0 371.35925 23.118394"
   version="1.1"
   id="svg5"
   xmlns="http://www.w3.org/2000/svg"
   xmlns:svg="http://www.w3.org/2000/svg">
  <defs
     id="defs2" />
  <g
     id="layer1"
     transform="translate(-55.182692,-64.327491)">
    <g
       aria-label="happy virus"
       id="text1574"
       style="font-size:9.87778px;line-height:1.25;font-family:happy_virus;-inkscape-font-specification:happy_virus;stroke-width:0.264583">
      <g
         aria-label="the quick brown fox jumps over the lazy dog"
         id="text15869"
         style="font-size:10.5833px;font-family:sans-serif;stroke-width:0.0700042"
         transform="matrix(2.2147014,0,0,2.2147014,-67.030487,-78.138687)">
        <path
           d="m 56.701975,64.62721 q 0,-0.175699 -0.155028,-0.248046 -0.144694,-0.08268 -0.299723,0 -0.144693,0.07235 -0.144693,0.248046 v 1.519283 q -0.05168,0 -0.237711,0 -0.186035,-0.01034 -0.268717,0 -0.07235,0 -0.196369,0.031 -0.113688,0.02067 -0.165365,0.09302 -0.05168,0.06201 -0.05168,0.175699 0,0.113688 0.05168,0.186035 0.05168,0.06201 0.165365,0.09302 0.124023,0.02067 0.196369,0.03101 0.08268,0 0.268717,0 0.186034,-0.01034 0.237711,-0.01034 v 2.61482 q 0,0.175699 0.144693,0.248046 0.155029,0.08268 0.299723,0 0.155028,-0.07235 0.155028,-0.248046 v -2.61482 q 0.05168,0 0.237711,0.01034 0.186035,0 0.258382,0 0.08268,-0.01034 0.196369,-0.03101 0.124023,-0.03101 0.1757,-0.09302 0.05168,-0.07235 0.05168,-0.186035 0,-0.113688 -0.05168,-0.175699 -0.05168,-0.07235 -0.1757,-0.09302 -0.113687,-0.031 -0.196369,-0.031 -0.07235,-0.01034 -0.258382,0 -0.186034,0 -0.237711,0 z"
           style="font-family:happy_virus"
           id="path46448" />
        <path
           d="m 59.223777,67.190353 q 0.423746,-0.423745 1.00252,-0.423745 0.578774,0 0.992184,0.423745 0.423746,0.41341 0.423746,0.992185 0,0.589109 -0.413411,1.002519 -0.124023,0.124023 -0.07235,0.289387 0.05168,0.165364 0.19637,0.206705 0.144693,0.04134 0.289387,-0.07235 0.589109,-0.58911 0.589109,-1.426265 0,-0.837156 -0.589109,-1.426265 -0.58911,-0.58911 -1.426265,-0.58911 -0.826821,0 -1.41593,0.58911 v -2.118727 q 0,-0.1757 -0.144694,-0.248046 -0.144693,-0.08268 -0.299722,0 -0.144694,0.07235 -0.144694,0.248046 v 3.555327 q 0,0.82682 0.58911,1.41593 0.206705,0.206705 0.41341,-0.01034 0.21704,-0.206705 0.01033,-0.41341 -0.423745,-0.423745 -0.423745,-1.002519 0,-0.568439 0.423745,-0.992185 z"
           style="font-family:happy_virus"
           id="path46450" />
        <path
           d="m 65.817669,69.185057 q 0.206705,-0.206705 -0.01033,-0.41341 -0.206705,-0.21704 -0.413411,-0.01033 -0.330728,0.330728 -0.806149,0.330728 -0.475422,0 -0.816485,-0.330728 -0.330728,-0.330728 -0.330728,-0.80615 0,-0.475422 0.330728,-0.80615 0.341063,-0.341063 0.816485,-0.341063 0.392739,0 0.692462,0.237711 0.310057,0.237711 0.41341,0.60978 h -1.116208 q -0.175699,0 -0.258381,0.155028 -0.07235,0.144694 0,0.299723 0.08268,0.144693 0.258381,0.144693 h 1.446936 q 0.124023,0 0.206705,-0.08268 0.09302,-0.09302 0.09302,-0.21704 0,-0.723468 -0.506427,-1.229895 -0.506428,-0.516763 -1.229895,-0.516763 -0.723468,0 -1.229895,0.516763 -0.506428,0.506427 -0.506428,1.229895 0,0.899167 0.754474,1.4366 0.764808,0.537433 1.65364,0.165364 0.341064,-0.155028 0.558104,-0.372069 z"
           style="font-family:happy_virus"
           id="path46452" />
        <path
           d="m 72.56659,69.732826 q 0.175699,0 0.248046,-0.155029 0.08268,-0.144694 0,-0.289387 -0.07235,-0.155029 -0.248046,-0.155029 -0.496092,0 -0.847491,-0.341063 -0.351399,-0.351399 -0.351399,-0.847491 0,-0.496092 0.351399,-0.847491 0.351399,-0.351399 0.847491,-0.351399 0.496092,0 0.837155,0.351399 0.351399,0.351399 0.351399,0.847491 v 6.51121 q 0,0.175699 0.144693,0.248046 0.155029,0.08268 0.299723,0 0.155029,-0.07235 0.155029,-0.248046 v -6.51121 q 0,-0.744138 -0.527098,-1.271236 -0.516763,-0.527098 -1.260901,-0.527098 -0.744139,0 -1.271236,0.527098 -0.516763,0.527098 -0.516763,1.271236 0,0.744138 0.516763,1.271236 0.527097,0.516763 1.271236,0.516763 z"
           style="font-family:happy_virus"
           id="path46454" />
        <path
           d="m 77.971927,68.688965 q -0.41341,0.41341 -0.992184,0.41341 -0.578774,0 -1.00252,-0.423745 -0.423745,-0.423746 -0.423745,-0.992185 0,-0.578774 0.423745,-1.002519 0.206705,-0.206705 -0.01033,-0.41341 -0.206705,-0.217041 -0.41341,-0.01034 -0.589109,0.58911 -0.589109,1.426265 0,0.837156 0.589109,1.426265 0.589109,0.58911 1.41593,0.58911 0.837155,0 1.426265,-0.58911 0.589109,-0.589109 0.589109,-1.426265 0,-0.837155 -0.589109,-1.426265 -0.124023,-0.124023 -0.289387,-0.07235 -0.165364,0.05168 -0.206705,0.206705 -0.03101,0.144693 0.08268,0.289387 0.41341,0.41341 0.41341,1.002519 0,0.578775 -0.423746,1.00252 z"
           style="font-family:happy_virus"
           id="path46456" />
        <path
           d="m 79.604896,69.371092 q 0,0.175699 0.144694,0.248046 0.144693,0.08268 0.289387,0 0.155029,-0.07235 0.155029,-0.248046 v -2.924877 q 0,-0.175699 -0.144694,-0.248046 -0.144693,-0.08268 -0.299722,0 -0.144694,0.07235 -0.144694,0.248046 z"
           style="font-family:happy_virus"
           id="path46458" />
        <path
           d="m 81.55826,68.544271 q -0.206705,-0.289387 -0.206705,-0.65112 0,-0.361734 0.206705,-0.640786 0.206705,-0.289387 0.506427,-0.41341 0.299722,-0.124023 0.640786,-0.07235 0.351398,0.05168 0.60978,0.310057 0.206705,0.206706 0.41341,0 0.21704,-0.21704 0.01033,-0.423745 -0.506427,-0.516763 -1.229895,-0.516763 -0.723468,0 -1.24023,0.516763 -0.516763,0.516763 -0.516763,1.240231 0,0.723467 0.516763,1.229895 0.516762,0.506427 1.24023,0.506427 0.723468,0 1.229895,-0.506427 0.124023,-0.124023 0.07235,-0.289387 -0.05168,-0.165364 -0.206705,-0.19637 -0.144694,-0.04134 -0.289387,0.07235 -0.258382,0.258381 -0.60978,0.310057 -0.341064,0.05168 -0.640786,-0.07235 -0.299722,-0.124023 -0.506427,-0.403075 z"
           style="font-family:happy_virus"
           id="path46460" />
        <path
           d="m 84.431461,69.371092 q 0,0.175699 0.144694,0.248046 0.144693,0.08268 0.289387,0 0.155028,-0.07235 0.155028,-0.248046 v -1.591629 q 0.516763,0.444416 1.21956,0.43408 0.454752,0.02067 0.775144,0.361734 0.320393,0.330728 0.320393,0.795815 0,0.175699 0.144694,0.248046 0.155029,0.08268 0.299722,0 0.155029,-0.07235 0.155029,-0.248046 0,-0.930173 -0.775144,-1.446936 0.351399,-0.237711 0.558104,-0.620115 0.21704,-0.39274 0.21704,-0.837155 0,-0.1757 -0.155029,-0.248047 -0.144693,-0.08268 -0.299722,0 -0.144694,0.07235 -0.144694,0.248047 0,0.475421 -0.341063,0.816485 -0.330728,0.341063 -0.816485,0.341063 -0.475422,0 -0.816485,-0.330728 -0.330728,-0.341064 -0.330728,-0.82682 0,-0.310058 -0.01034,-0.919838 0,-0.60978 0,-0.919838 0,-0.175699 -0.144693,-0.248046 -0.144694,-0.08268 -0.299722,0 -0.144694,0.07235 -0.144694,0.248046 z"
           style="font-family:happy_virus"
           id="path46462" />
        <path
           d="m 94.16727,66.146493 q -0.175699,0 -0.258381,0.155028 -0.07235,0.144694 0,0.299723 0.08268,0.144693 0.258381,0.144693 0.475422,0 0.80615,0.341064 0.341063,0.330728 0.341063,0.80615 0,0.475421 -0.341063,0.816485 -0.330728,0.330728 -0.80615,0.330728 -0.475422,0 -0.816485,-0.330728 -0.341064,-0.341064 -0.341064,-0.816485 v -3.276276 q 0,-0.175699 -0.144693,-0.248046 -0.144694,-0.08268 -0.299722,0 -0.144694,0.07235 -0.144694,0.248046 v 3.276276 q 0,0.723467 0.506427,1.24023 0.516763,0.506427 1.240231,0.506427 0.723468,0 1.229895,-0.506427 0.506427,-0.516763 0.506427,-1.24023 0,-0.723468 -0.506427,-1.229896 -0.506427,-0.516762 -1.229895,-0.516762 z"
           style="font-family:happy_virus"
           id="path46464" />
        <path
           d="m 98.280698,66.745937 q 0.1757,0 0.248047,-0.144693 0.08268,-0.155029 0,-0.299723 -0.07235,-0.155028 -0.248047,-0.155028 -0.744138,0 -1.271236,0.527098 -0.527098,0.527098 -0.527098,1.271236 v 1.426265 q 0,0.175699 0.144694,0.248046 0.144693,0.08268 0.289387,0 0.155029,-0.07235 0.155029,-0.248046 v -1.426265 q 0,-0.496092 0.351398,-0.847491 0.351399,-0.351399 0.857826,-0.351399 z"
           style="font-family:happy_virus"
           id="path46466" />
        <path
           d="m 100.92652,66.198169 q -0.67179,0 -0.67179,0.341063 0,0.124023 0.0827,0.217041 0.093,0.08268 0.21704,0.08268 0.062,0 0.18604,-0.02067 0.12402,-0.03101 0.18603,-0.03101 0.4961,0 0.81649,0.351399 0.32039,0.341063 0.32039,0.795815 0,0.485756 -0.34106,0.816485 -0.34107,0.320392 -0.79582,0.320392 -0.66145,0 -0.992181,-0.568439 -0.330728,-0.568438 0,-1.136877 0.09302,-0.165364 -0.01033,-0.299723 -0.09302,-0.144693 -0.248047,-0.144693 -0.155028,0 -0.258381,0.144693 -0.268717,0.423746 -0.237711,0.888832 0.03101,0.454751 0.227376,0.837156 0.206705,0.382404 0.609784,0.63045 0.41341,0.248046 0.9095,0.248046 0.68213,0 1.20923,-0.496092 0.5271,-0.496092 0.5271,-1.24023 0,-0.682127 -0.4961,-1.209225 -0.48575,-0.527098 -1.24023,-0.527098 z"
           style="font-family:happy_virus"
           id="path46468" />
        <path
           d="m 106.93131,68.730306 q 0.48575,0.785479 1.4366,0.909502 0.96118,0.134359 1.66397,-0.547768 0.57878,-0.578774 0.57878,-1.405595 0,-0.82682 -0.57878,-1.405594 -0.12402,-0.124023 -0.28938,-0.07235 -0.16537,0.05168 -0.20671,0.206705 -0.031,0.144694 0.0827,0.289387 0.40308,0.403075 0.40308,0.981849 0,0.568439 -0.41341,0.98185 -0.41341,0.41341 -0.98185,0.41341 -0.56844,0 -0.98185,-0.41341 -0.41341,-0.413411 -0.41341,-0.98185 0,-0.568439 0.41341,-0.981849 0.2067,-0.206705 -0.0103,-0.41341 -0.2067,-0.21704 -0.41341,-0.01033 -0.58911,0.589109 -0.58911,1.405594 0,0.568439 -0.41341,0.98185 -0.41341,0.41341 -0.98184,0.41341 -0.56844,0 -0.98185,-0.41341 -0.41341,-0.413411 -0.41341,-0.98185 0,-0.568439 0.41341,-0.981849 0.2067,-0.206705 -0.0103,-0.41341 -0.2067,-0.21704 -0.41341,-0.01033 -0.57877,0.578774 -0.57877,1.405594 0,0.826821 0.57877,1.405595 0.7028,0.682127 1.65364,0.547768 0.96118,-0.124023 1.44694,-0.909502 z"
           style="font-family:happy_virus"
           id="path46470" />
        <path
           d="m 111.93357,67.180018 q 0.41341,-0.41341 0.98185,-0.41341 0.56844,0 0.98185,0.41341 0.41341,0.41341 0.41341,0.981849 0,0.568439 -0.41341,0.981849 -0.20671,0.206705 0,0.41341 0.21704,0.217041 0.42374,0.01034 0.57878,-0.578775 0.57878,-1.405595 0,-0.837155 -0.57878,-1.41593 -0.57877,-0.578774 -1.41593,-0.578774 -0.82682,0 -1.40559,0.578774 -0.56844,0.568439 -0.57878,1.39526 0,0.82682 0.57878,1.426265 0.12402,0.124023 0.28939,0.07235 0.16536,-0.05168 0.2067,-0.196369 0.0413,-0.155029 -0.0724,-0.299723 -0.40307,-0.403075 -0.40307,-0.981849 0,-0.578774 0.41341,-0.981849 z"
           style="font-family:happy_virus"
           id="path46472" />
        <path
           d="m 121.16295,64.926933 q 0.1757,0 0.24805,-0.144694 0.0827,-0.155029 0,-0.299722 -0.0724,-0.155029 -0.24805,-0.155029 -0.74414,0 -1.27123,0.527098 -0.51677,0.516763 -0.51677,1.260901 v 3.255605 q 0,0.175699 0.1447,0.248046 0.14469,0.08268 0.28938,0 0.15503,-0.07235 0.15503,-0.248046 v -3.255605 q 0,-0.496092 0.3514,-0.837156 0.3514,-0.351398 0.84749,-0.351398 z"
           style="font-family:happy_virus"
           id="path46474" />
        <path
           d="m 122.40318,66.198169 q -0.67179,0 -0.67179,0.341063 0,0.124023 0.0827,0.217041 0.093,0.08268 0.21704,0.08268 0.062,0 0.18603,-0.02067 0.12402,-0.03101 0.18603,-0.03101 0.4961,0 0.81649,0.351399 0.32039,0.341063 0.32039,0.795815 0,0.485756 -0.34106,0.816485 -0.34106,0.320392 -0.79582,0.320392 -0.66145,0 -0.99218,-0.568439 -0.33073,-0.568438 0,-1.136877 0.093,-0.165364 -0.0103,-0.299723 -0.093,-0.144693 -0.24805,-0.144693 -0.15503,0 -0.25838,0.144693 -0.26872,0.423746 -0.23771,0.888832 0.031,0.454751 0.22737,0.837156 0.20671,0.382404 0.60978,0.63045 0.41341,0.248046 0.9095,0.248046 0.68213,0 1.20923,-0.496092 0.5271,-0.496092 0.5271,-1.24023 0,-0.682127 -0.49609,-1.209225 -0.48576,-0.527098 -1.24024,-0.527098 z"
           style="font-family:happy_virus"
           id="path46476" />
        <path
           d="m 127.91187,69.660479 q 0.1757,0 0.24805,-0.144694 0.0827,-0.155028 0,-0.299722 -0.0724,-0.155029 -0.24805,-0.155029 -0.49609,0 -0.81648,-0.341063 -0.31006,-0.341064 -0.33073,-0.857826 0.0207,-0.454751 0.3514,-0.775144 0.33073,-0.320393 0.79581,-0.320393 0.1757,0 0.24805,-0.144694 0.0827,-0.155028 0,-0.299722 -0.0724,-0.144694 -0.24805,-0.144694 -0.44441,0 -0.82682,0.206705 -0.3824,0.206706 -0.62011,0.558104 -0.23771,-0.351398 -0.62012,-0.558104 -0.3824,-0.206705 -0.82682,-0.206705 -0.1757,0 -0.25838,0.144694 -0.0724,0.144694 0,0.299722 0.0827,0.144694 0.25838,0.144694 0.49609,0 0.80615,0.341063 0.32039,0.341064 0.34106,0.857826 -0.0207,0.454751 -0.35139,0.775144 -0.33073,0.320393 -0.79582,0.320393 -0.1757,0 -0.25838,0.155029 -0.0724,0.144694 0,0.299722 0.0827,0.144694 0.25838,0.144694 0.44442,0 0.82682,-0.206705 0.38241,-0.206705 0.62012,-0.558104 0.23771,0.351399 0.62011,0.558104 0.38241,0.206705 0.82682,0.206705 z"
           style="font-family:happy_virus"
           id="path46478" />
        <path
           d="m 132.94514,74.166649 q -0.1757,0 -0.25838,0.144694 -0.0724,0.155029 0,0.299722 0.0827,0.155029 0.25838,0.155029 0.74414,0 1.27124,-0.527098 0.53743,-0.527098 0.53743,-1.271236 0,-1.095537 -0.0103,-3.26594 0,-2.160068 0,-3.255605 0,-0.175699 -0.15503,-0.248046 -0.1447,-0.08268 -0.29973,0 -0.14469,0.07235 -0.14469,0.248046 0,1.095537 0,3.255605 0.0103,2.170403 0.0103,3.26594 0,0.496092 -0.3514,0.847491 -0.3514,0.351398 -0.85783,0.351398 z"
           style="font-family:happy_virus"
           id="path46480" />
        <path
           d="m 138.37114,68.688965 q -0.41341,0.41341 -0.99218,0.41341 -0.57877,0 -1.00252,-0.423745 -0.42374,-0.423746 -0.42374,-0.992185 0,-0.578774 0.42374,-1.002519 0.20671,-0.206705 -0.0103,-0.41341 -0.20671,-0.217041 -0.41341,-0.01034 -0.58911,0.58911 -0.58911,1.426265 0,0.837156 0.58911,1.426265 0.58911,0.58911 1.41593,0.58911 0.83715,0 1.42626,-0.58911 0.58911,-0.589109 0.58911,-1.426265 0,-0.837155 -0.58911,-1.426265 -0.12402,-0.124023 -0.28939,-0.07235 -0.16536,0.05168 -0.2067,0.206705 -0.031,0.144693 0.0827,0.289387 0.41341,0.41341 0.41341,1.002519 0,0.578775 -0.42375,1.00252 z"
           style="font-family:happy_virus"
           id="path46482" />
        <path
           d="m 143.68347,67.128342 q -0.48576,-0.78548 -1.44694,-0.909503 -0.95084,-0.124023 -1.65364,0.558104 -0.57877,0.578774 -0.57877,1.405595 0,0.82682 0.57877,1.405594 0.20671,0.206705 0.41341,-0.01033 0.21704,-0.206705 0.0103,-0.41341 -0.41341,-0.41341 -0.41341,-0.981849 0,-0.568439 0.41341,-0.981849 0.41341,-0.413411 0.98185,-0.413411 0.56844,0 0.98185,0.413411 0.41341,0.41341 0.41341,0.981849 0,0.578774 -0.40308,0.981849 -0.2067,0.206705 0,0.41341 0.21704,0.21704 0.42375,0.01033 0.57877,-0.578774 0.57877,-1.405594 0,-0.568439 0.41341,-0.981849 0.41341,-0.413411 0.98185,-0.413411 0.56844,0 0.98185,0.413411 0.41341,0.41341 0.41341,0.981849 0,0.578774 -0.40307,0.981849 -0.12403,0.124023 -0.0724,0.289387 0.0517,0.165364 0.19637,0.206705 0.14469,0.04134 0.28939,-0.07235 0.57877,-0.578774 0.57877,-1.405594 0,-0.826821 -0.57877,-1.405595 -0.7028,-0.682127 -1.66398,-0.558104 -0.95084,0.124023 -1.4366,0.909503 z"
           style="font-family:happy_virus"
           id="path46484" />
        <path
           d="m 149.7296,69.133381 q -0.1757,0 -0.25839,0.155029 -0.0723,0.144693 0,0.289387 0.0827,0.155029 0.25839,0.155029 0.74413,0 1.2609,-0.516763 0.52709,-0.527098 0.52709,-1.271236 0,-0.744138 -0.52709,-1.271236 -0.51677,-0.527098 -1.2609,-0.527098 -0.74414,0 -1.27124,0.527098 -0.51676,0.527098 -0.51676,1.271236 v 6.51121 q 0,0.175699 0.14469,0.248046 0.14469,0.08268 0.28939,0 0.15503,-0.07235 0.15503,-0.248046 v -6.51121 q 0,-0.496092 0.35139,-0.847491 0.3514,-0.351399 0.8475,-0.351399 0.49609,0 0.83715,0.351399 0.3514,0.351399 0.3514,0.847491 0,0.496092 -0.3514,0.847491 -0.34106,0.341063 -0.83715,0.341063 z"
           style="font-family:happy_virus"
           id="path46486" />
        <path
           d="m 153.06788,67.934492 q 0,0.475421 -0.34106,0.816485 -0.34107,0.330728 -0.82682,0.330728 -0.1757,0 -0.25838,0.155028 -0.0724,0.144694 0,0.299723 0.0827,0.144693 0.25838,0.144693 0.72347,0 1.24023,-0.506427 0.51676,-0.516763 0.51676,-1.24023 0,-0.475422 0.34106,-0.80615 0.34107,-0.341064 0.82682,-0.341064 0.1757,0 0.24805,-0.144693 0.0827,-0.155029 0,-0.299723 -0.0724,-0.155028 -0.24805,-0.155028 -0.72346,0 -1.24023,0.516762 -0.51676,0.506428 -0.51676,1.229896 z"
           style="font-family:happy_virus"
           id="path46488" />
        <path
           d="m 161.33608,66.198169 q -0.67179,0 -0.67179,0.341063 0,0.124023 0.0827,0.217041 0.093,0.08268 0.21705,0.08268 0.062,0 0.18603,-0.02067 0.12402,-0.03101 0.18603,-0.03101 0.4961,0 0.81649,0.351399 0.32039,0.341063 0.32039,0.795815 0,0.485756 -0.34106,0.816485 -0.34106,0.320392 -0.79582,0.320392 -0.66145,0 -0.99218,-0.568439 -0.33073,-0.568438 0,-1.136877 0.093,-0.165364 -0.0103,-0.299723 -0.093,-0.144693 -0.24804,-0.144693 -0.15503,0 -0.25838,0.144693 -0.26872,0.423746 -0.23771,0.888832 0.031,0.454751 0.22737,0.837156 0.20671,0.382404 0.60978,0.63045 0.41341,0.248046 0.9095,0.248046 0.68213,0 1.20923,-0.496092 0.5271,-0.496092 0.5271,-1.24023 0,-0.682127 -0.4961,-1.209225 -0.48575,-0.527098 -1.24023,-0.527098 z"
           style="font-family:happy_virus"
           id="path46490" />
        <path
           d="m 164.22995,66.342862 q -0.0723,-0.155028 -0.24804,-0.165364 -0.16537,-0.01033 -0.27905,0.124023 -0.10336,0.124024 -0.0207,0.289388 l 1.38493,2.935212 q 0.0724,0.165364 0.26872,0.165364 0.19636,0 0.26871,-0.165364 l 1.41593,-2.935212 q 0.0827,-0.165364 -0.0207,-0.289388 -0.10335,-0.134358 -0.26872,-0.134358 -0.16536,0 -0.24804,0.165364 l -1.14721,2.377109 z"
           style="font-family:happy_virus"
           id="path46492" />
        <path
           d="m 170.24507,69.185057 q 0.20671,-0.206705 -0.0103,-0.41341 -0.20671,-0.21704 -0.41341,-0.01033 -0.33073,0.330728 -0.80615,0.330728 -0.47542,0 -0.81649,-0.330728 -0.33073,-0.330728 -0.33073,-0.80615 0,-0.475422 0.33073,-0.80615 0.34107,-0.341063 0.81649,-0.341063 0.39274,0 0.69246,0.237711 0.31006,0.237711 0.41341,0.60978 h -1.11621 q -0.1757,0 -0.25838,0.155028 -0.0724,0.144694 0,0.299723 0.0827,0.144693 0.25838,0.144693 h 1.44694 q 0.12402,0 0.2067,-0.08268 0.093,-0.09302 0.093,-0.21704 0,-0.723468 -0.50643,-1.229895 -0.50643,-0.516763 -1.22989,-0.516763 -0.72347,0 -1.2299,0.516763 -0.50643,0.506427 -0.50643,1.229895 0,0.899167 0.75448,1.4366 0.76481,0.537433 1.65364,0.165364 0.34106,-0.155028 0.5581,-0.372069 z"
           style="font-family:happy_virus"
           id="path46494" />
        <path
           d="m 173.13894,66.745937 q 0.1757,0 0.24805,-0.144693 0.0827,-0.155029 0,-0.299723 -0.0724,-0.155028 -0.24805,-0.155028 -0.74414,0 -1.27124,0.527098 -0.52709,0.527098 -0.52709,1.271236 v 1.426265 q 0,0.175699 0.14469,0.248046 0.14469,0.08268 0.28939,0 0.15503,-0.07235 0.15503,-0.248046 v -1.426265 q 0,-0.496092 0.35139,-0.847491 0.3514,-0.351399 0.85783,-0.351399 z"
           style="font-family:happy_virus"
           id="path46496" />
        <path
           d="m 179.43311,64.62721 q 0,-0.175699 -0.15503,-0.248046 -0.14469,-0.08268 -0.29972,0 -0.1447,0.07235 -0.1447,0.248046 v 1.519283 q -0.0517,0 -0.23771,0 -0.18603,-0.01034 -0.26871,0 -0.0724,0 -0.19637,0.031 -0.11369,0.02067 -0.16537,0.09302 -0.0517,0.06201 -0.0517,0.175699 0,0.113688 0.0517,0.186035 0.0517,0.06201 0.16537,0.09302 0.12402,0.02067 0.19637,0.03101 0.0827,0 0.26871,0 0.18604,-0.01034 0.23771,-0.01034 v 2.61482 q 0,0.175699 0.1447,0.248046 0.15503,0.08268 0.29972,0 0.15503,-0.07235 0.15503,-0.248046 v -2.61482 q 0.0517,0 0.23771,0.01034 0.18603,0 0.25838,0 0.0827,-0.01034 0.19637,-0.03101 0.12402,-0.03101 0.1757,-0.09302 0.0517,-0.07235 0.0517,-0.186035 0,-0.113688 -0.0517,-0.175699 -0.0517,-0.07235 -0.1757,-0.09302 -0.11369,-0.031 -0.19637,-0.031 -0.0724,-0.01034 -0.25838,0 -0.18604,0 -0.23771,0 z"
           style="font-family:happy_virus"
           id="path46498" />
        <path
           d="m 181.95491,67.190353 q 0.42374,-0.423745 1.00252,-0.423745 0.57877,0 0.99218,0.423745 0.42375,0.41341 0.42375,0.992185 0,0.589109 -0.41341,1.002519 -0.12402,0.124023 -0.0724,0.289387 0.0517,0.165364 0.19637,0.206705 0.1447,0.04134 0.28939,-0.07235 0.58911,-0.58911 0.58911,-1.426265 0,-0.837156 -0.58911,-1.426265 -0.58911,-0.58911 -1.42627,-0.58911 -0.82682,0 -1.41593,0.58911 v -2.118727 q 0,-0.1757 -0.14469,-0.248046 -0.14469,-0.08268 -0.29972,0 -0.1447,0.07235 -0.1447,0.248046 v 3.555327 q 0,0.82682 0.58911,1.41593 0.20671,0.206705 0.41341,-0.01034 0.21704,-0.206705 0.0103,-0.41341 -0.42375,-0.423745 -0.42375,-1.002519 0,-0.568439 0.42375,-0.992185 z"
           style="font-family:happy_virus"
           id="path46500" />
        <path
           d="m 188.5488,69.185057 q 0.2067,-0.206705 -0.0103,-0.41341 -0.2067,-0.21704 -0.41341,-0.01033 -0.33073,0.330728 -0.80615,0.330728 -0.47542,0 -0.81648,-0.330728 -0.33073,-0.330728 -0.33073,-0.80615 0,-0.475422 0.33073,-0.80615 0.34106,-0.341063 0.81648,-0.341063 0.39274,0 0.69246,0.237711 0.31006,0.237711 0.41341,0.60978 h -1.1162 q -0.1757,0 -0.25838,0.155028 -0.0724,0.144694 0,0.299723 0.0827,0.144693 0.25838,0.144693 h 1.44693 q 0.12403,0 0.20671,-0.08268 0.093,-0.09302 0.093,-0.21704 0,-0.723468 -0.50643,-1.229895 -0.50643,-0.516763 -1.2299,-0.516763 -0.72346,0 -1.22989,0.516763 -0.50643,0.506427 -0.50643,1.229895 0,0.899167 0.75447,1.4366 0.76481,0.537433 1.65364,0.165364 0.34107,-0.155028 0.55811,-0.372069 z"
           style="font-family:happy_virus"
           id="path46502" />
        <path
           d="m 193.50972,69.371092 q 0,0.175699 0.14469,0.248046 0.1447,0.08268 0.28939,0 0.15503,-0.07235 0.15503,-0.248046 V 64.62721 q 0,-0.175699 -0.14469,-0.248046 -0.1447,-0.08268 -0.29973,0 -0.14469,0.07235 -0.14469,0.248046 z"
           style="font-family:happy_virus"
           id="path46504" />
        <path
           d="m 196.42426,69.639808 q 0.1757,0 0.24805,-0.144693 0.0827,-0.155029 0,-0.299723 -0.0724,-0.155028 -0.24805,-0.155028 -0.48576,0 -0.82682,-0.330728 -0.34106,-0.341064 -0.34106,-0.816485 0,-0.475422 0.34106,-0.80615 0.34106,-0.341064 0.82682,-0.341064 0.47542,0 0.81648,0.341064 0.34107,0.330728 0.34107,0.80615 v 1.446935 q 0,0.175699 0.14469,0.248046 0.15503,0.08268 0.29972,0 0.1447,-0.07235 0.1447,-0.248046 v -1.446935 q 0,-0.723468 -0.51677,-1.229896 -0.50642,-0.516762 -1.22989,-0.516762 -0.72347,0 -1.24023,0.516762 -0.51676,0.506428 -0.51676,1.229896 0,0.723467 0.51676,1.24023 0.51676,0.506427 1.24023,0.506427 z"
           style="font-family:happy_virus"
           id="path46506" />
        <path
           d="m 199.98992,67.934492 q 0,0.723467 0.51677,1.24023 0.51676,0.506427 1.24023,0.506427 0.1757,0 0.24804,-0.144693 0.0827,-0.155029 0,-0.299723 -0.0723,-0.155028 -0.24804,-0.155028 -0.48576,0 -0.82682,-0.330728 -0.34107,-0.341064 -0.34107,-0.816485 0,-0.723468 -0.51676,-1.229896 -0.51676,-0.516762 -1.24023,-0.516762 -0.1757,0 -0.25838,0.155028 -0.0724,0.144694 0,0.299723 0.0827,0.144693 0.25838,0.144693 0.48576,0 0.82682,0.341064 0.34106,0.330728 0.34106,0.80615 z"
           style="font-family:happy_virus"
           id="path46508" />
        <path
           d="m 204.67179,69.102375 q -0.57877,0 -1.00252,-0.423745 -0.42374,-0.423746 -0.42374,-0.992185 0,-0.578774 0.42374,-1.002519 0.20671,-0.206705 -0.0103,-0.41341 -0.20671,-0.217041 -0.41341,-0.01034 -0.58911,0.58911 -0.58911,1.426265 0,0.837156 0.58911,1.426265 0.58911,0.58911 1.41593,0.58911 0.83715,0 1.42626,-0.58911 v 3.865385 q 0,0.496092 -0.3514,0.837156 -0.34106,0.351398 -0.84749,0.351398 -0.1757,0 -0.25838,0.144694 -0.0724,0.155029 0,0.299722 0.0827,0.155029 0.25838,0.155029 0.74414,0 1.27124,-0.527098 0.5271,-0.516762 0.5271,-1.260901 v -5.29165 q 0,-0.82682 -0.59945,-1.426265 -0.12402,-0.124023 -0.28939,-0.07235 -0.16536,0.05168 -0.2067,0.206705 -0.031,0.144693 0.0827,0.289387 0.41341,0.41341 0.41341,1.064531 -0.0207,0.547768 -0.44441,0.950843 -0.41341,0.403075 -0.97152,0.403075 z"
           style="font-family:happy_virus"
           id="path46510" />
        <path
           d="m 212.909,66.735602 q 0.1757,0 0.24804,-0.144693 0.0827,-0.155029 0,-0.299723 -0.0723,-0.155029 -0.24804,-0.155029 -0.72347,0 -1.24023,0.516763 -0.50643,0.506428 -0.50643,1.229895 0,0.723468 0.50643,1.240231 0.51676,0.506427 1.24023,0.506427 0.72346,0 1.22989,-0.506427 0.50643,-0.516763 0.50643,-1.240231 v -3.26594 q 0,-0.175699 -0.1447,-0.248046 -0.14469,-0.08268 -0.29972,0 -0.14469,0.07235 -0.14469,0.248046 v 3.26594 q 0,0.475422 -0.34106,0.816485 -0.33073,0.330728 -0.80615,0.330728 -0.47543,0 -0.81649,-0.330728 -0.34106,-0.341063 -0.34106,-0.816485 0,-0.475421 0.34106,-0.80615 0.34106,-0.341063 0.81649,-0.341063 z"
           style="font-family:happy_virus"
           id="path46512" />
        <path
           d="m 216.96041,66.198169 q -0.67179,0 -0.67179,0.341063 0,0.124023 0.0827,0.217041 0.093,0.08268 0.21704,0.08268 0.062,0 0.18604,-0.02067 0.12402,-0.03101 0.18603,-0.03101 0.4961,0 0.81649,0.351399 0.32039,0.341063 0.32039,0.795815 0,0.485756 -0.34106,0.816485 -0.34107,0.320392 -0.79582,0.320392 -0.66145,0 -0.99218,-0.568439 -0.33073,-0.568438 0,-1.136877 0.093,-0.165364 -0.0103,-0.299723 -0.093,-0.144693 -0.24804,-0.144693 -0.15503,0 -0.25838,0.144693 -0.26872,0.423746 -0.23771,0.888832 0.031,0.454751 0.22737,0.837156 0.20671,0.382404 0.60978,0.63045 0.41341,0.248046 0.9095,0.248046 0.68213,0 1.20923,-0.496092 0.5271,-0.496092 0.5271,-1.24023 0,-0.682127 -0.4961,-1.209225 -0.48575,-0.527098 -1.24023,-0.527098 z"
           style="font-family:happy_virus"
           id="path46514" />
        <path
           d="m 221.06351,74.145979 q -0.1757,0 -0.25839,0.144693 -0.0723,0.155029 0,0.299723 0.0827,0.155029 0.25839,0.155029 0.74413,0 1.27123,-0.527098 0.5271,-0.516763 0.5271,-1.260901 v -5.012598 q 0,-0.744138 -0.5271,-1.271236 -0.51676,-0.527098 -1.2609,-0.527098 -0.74414,0 -1.27123,0.527098 -0.51677,0.527098 -0.51677,1.271236 0,0.744138 0.51677,1.271236 0.52709,0.516763 1.27123,0.516763 0.1757,0 0.24805,-0.155029 0.0827,-0.144694 0,-0.289387 -0.0724,-0.155029 -0.24805,-0.155029 -0.49609,0 -0.84749,-0.341063 -0.3514,-0.351399 -0.3514,-0.847491 0,-0.496092 0.3514,-0.847491 0.3514,-0.351399 0.84749,-0.351399 0.49609,0 0.83716,0.351399 0.3514,0.351399 0.3514,0.847491 0,0.837155 0,2.501131 0.0103,1.674311 0.0103,2.511467 0,0.496092 -0.3514,0.837155 -0.3514,0.351399 -0.85782,0.351399 z"
           style="font-family:happy_virus"
           id="path46516" />
      </g>
    </g>
  </g>
</svg>
